# Blender v2.78 (sub 0) OBJ File: 'Train_steam.blend'
# www.blender.org
mtllib Train_steam.mtl
o Cube.000_Cube.004
v 0.375000 0.375000 0.750000
v 0.375000 0.000000 0.375000
v 0.437500 0.375000 0.375000
v 0.437500 0.312500 0.437500
v 0.437500 0.062500 0.437500
v 0.437500 0.312500 0.687500
v 0.500000 0.312500 0.687500
v 0.500000 0.062500 0.437500
v 0.437500 0.062500 0.687500
v 0.500000 0.312500 0.437500
v 0.375000 0.000000 0.750000
v 0.437500 0.375000 0.750000
v 0.437500 0.000000 0.375000
v 0.375000 0.375000 0.375000
v 0.437500 0.000000 0.750000
v 0.437500 0.062500 -0.562500
v 0.437500 0.312500 -0.562500
v 0.437500 0.062500 -0.812500
v 0.437500 0.312500 -0.812500
v 0.437500 0.375000 -0.875000
v 0.437500 0.000000 -0.875000
v 0.437500 0.375000 -0.500000
v 0.437500 0.000000 -0.500000
v 0.375000 0.375000 -0.875000
v 0.375000 0.000000 -0.875000
v 0.375000 0.375000 -0.500000
v 0.375000 0.000000 -0.500000
v 0.500000 0.312500 -0.812500
v 0.500000 0.062500 -0.812500
v 0.500000 0.312500 -0.562500
v 0.500000 0.062500 -0.562500
v 0.500000 0.062500 0.687500
v -0.375000 0.375000 0.750000
v -0.375000 0.000000 0.375000
v -0.437500 0.375000 0.375000
v -0.437500 0.312500 0.437500
v -0.437500 0.062500 0.437500
v -0.437500 0.312500 0.687500
v -0.500000 0.312500 0.687500
v -0.500000 0.062500 0.437500
v -0.437500 0.062500 0.687500
v -0.500000 0.312500 0.437500
v -0.375000 0.000000 0.750000
v -0.437500 0.375000 0.750000
v -0.437500 0.000000 0.375000
v -0.375000 0.375000 0.375000
v -0.437500 0.000000 0.750000
v -0.437500 0.062500 -0.562500
v -0.437500 0.312500 -0.562500
v -0.437500 0.062500 -0.812500
v -0.437500 0.312500 -0.812500
v -0.437500 0.375000 -0.875000
v -0.437500 0.000000 -0.875000
v -0.437500 0.375000 -0.500000
v -0.437500 0.000000 -0.500000
v -0.375000 0.375000 -0.875000
v -0.375000 0.000000 -0.875000
v -0.375000 0.375000 -0.500000
v -0.375000 0.000000 -0.500000
v -0.500000 0.312500 -0.812500
v -0.500000 0.062500 -0.812500
v -0.500000 0.312500 -0.562500
v -0.500000 0.062500 -0.562500
v -0.500000 0.062500 0.687500
v -0.312500 0.625000 1.125000
v -0.312500 0.812500 1.125000
v -0.312500 0.625000 -0.750000
v -0.312500 0.812500 -0.750000
v 0.312500 0.625000 1.125000
v 0.312500 0.812500 1.125000
v 0.312500 0.625000 -0.750000
v 0.312500 0.812500 -0.750000
v -0.312500 1.187500 1.125000
v -0.312500 1.187500 -0.750000
v 0.312500 1.187500 -0.750000
v 0.312500 1.187500 1.125000
v 0.125000 1.500000 1.125000
v -0.125000 1.500000 1.125000
v 0.125000 1.500000 0.875000
v -0.125000 1.500000 0.875000
v 0.125000 2.000000 1.125000
v -0.125000 2.000000 1.125000
v 0.125000 2.000000 0.875000
v -0.125000 2.000000 0.875000
v 0.187500 1.750000 -0.250000
v -0.187500 1.750000 -0.250000
v 0.187500 1.750000 -0.625000
v -0.187500 1.750000 -0.625000
v 0.187500 2.000000 -0.250000
v -0.187500 2.000000 -0.250000
v 0.187500 2.000000 -0.625000
v -0.187500 2.000000 -0.625000
v 0.000000 0.812500 0.812500
v -0.265165 0.922335 0.812500
v -0.375000 1.187500 0.812500
v -0.265165 1.452665 0.812500
v 0.000000 1.562500 0.812500
v 0.265165 1.452665 0.812500
v 0.375000 1.187500 0.812500
v 0.265165 0.922335 0.812500
v 0.000000 0.812500 1.250000
v -0.265165 0.922335 1.250000
v -0.375000 1.187500 1.250000
v -0.265165 1.452665 1.250000
v 0.000000 1.562500 1.250000
v 0.265165 1.452665 1.250000
v 0.375000 1.187500 1.250000
v 0.265165 0.922335 1.250000
v -0.500000 1.000000 0.812500
v -0.500000 1.500000 0.812500
v -0.500000 1.000000 -0.750000
v -0.500000 1.500000 -0.750000
v 0.500000 1.000000 0.812500
v 0.500000 1.500000 0.812500
v 0.500000 1.000000 -0.750000
v 0.500000 1.500000 -0.750000
v -0.250000 1.750000 0.812500
v -0.250000 1.750000 -0.750000
v 0.250000 1.750000 0.812500
v 0.250000 1.750000 -0.750000
v -0.625000 0.625000 1.250000
v -0.625000 0.375000 -0.750000
v -0.625000 0.625000 -0.750000
v 0.625000 0.625000 1.250000
v 0.625000 0.375000 -0.750000
v 0.625000 0.625000 -0.750000
v -0.625000 0.625000 -1.375000
v -0.625000 0.375000 -1.375000
v 0.625000 0.625000 -1.375000
v 0.625000 0.375000 -1.375000
v -0.500000 0.625000 -1.375000
v 0.500000 0.625000 -1.375000
v -0.625000 1.875000 -0.750000
v 0.625000 1.875000 -0.750000
v -0.500000 1.875000 -1.375000
v 0.500000 1.875000 -1.375000
v -0.625000 1.875000 -1.375000
v 0.625000 1.875000 -1.375000
v -0.500000 2.000000 -0.750000
v 0.500000 2.000000 -0.750000
v -0.500000 2.000000 -1.375000
v 0.500000 2.000000 -1.375000
v -0.500000 0.625000 -0.875000
v 0.500000 0.625000 -0.875000
v -0.500000 1.375000 -1.187500
v -0.500000 0.625000 -1.187500
v 0.500000 0.625000 -1.187500
v 0.500000 1.375000 -1.187500
v -0.187500 1.625000 -0.875000
v -0.187500 1.812500 -0.875000
v -0.187500 1.625000 -0.937500
v -0.187500 1.812500 -0.937500
v 0.000000 1.625000 -0.875000
v 0.000000 1.812500 -0.875000
v 0.000000 1.625000 -0.937500
v 0.000000 1.812500 -0.937500
v 0.062500 1.437500 -0.875000
v 0.062500 1.812500 -0.875000
v 0.062500 1.437500 -0.937500
v 0.062500 1.812500 -0.937500
v 0.437500 1.437500 -0.875000
v 0.437500 1.812500 -0.875000
v 0.437500 1.437500 -0.937500
v 0.437500 1.812500 -0.937500
v -0.375000 0.375000 1.125000
v 0.375000 0.375000 -1.250000
v -0.375000 0.375000 -1.250000
v -0.375000 0.062500 -0.750000
v -0.375000 0.062500 1.125000
v 0.375000 0.062500 -0.750000
v 0.375000 0.062500 1.125000
v 0.375000 0.062500 -1.250000
v -0.375000 0.062500 -1.250000
v -0.375000 0.375000 -0.750000
v -0.375000 0.375000 -0.375000
v -0.375000 0.375000 0.750000
v -0.437500 1.625000 -0.875000
v -0.437500 1.812500 -0.875000
v -0.437500 1.625000 -0.937500
v -0.437500 1.812500 -0.937500
v -0.250000 1.625000 -0.875000
v -0.250000 1.812500 -0.875000
v -0.250000 1.625000 -0.937500
v -0.250000 1.812500 -0.937500
v -0.500000 1.375000 -0.875000
v 0.500000 1.375000 -0.875000
v -0.500000 1.875000 -0.875000
v 0.500000 1.875000 -0.875000
v -0.187500 0.187500 1.312500
v -0.187500 0.562500 1.312500
v -0.187500 0.187500 1.125000
v -0.187500 0.562500 1.125000
v 0.187500 0.187500 1.312500
v 0.187500 0.562500 1.312500
v 0.187500 0.187500 1.125000
v 0.187500 0.562500 1.125000
v -0.187500 0.562500 -1.437500
v -0.187500 0.187500 -1.437500
v -0.187500 0.562500 -1.250000
v -0.187500 0.187500 -1.250000
v 0.187500 0.562500 -1.437500
v 0.187500 0.187500 -1.437500
v 0.187500 0.562500 -1.250000
v 0.187500 0.187500 -1.250000
v 0.375000 0.375000 -0.750000
v 0.375000 0.375000 -0.375000
v 0.375000 0.375000 0.250000
v 0.375000 0.375000 1.125000
v -0.625000 0.000000 1.250000
v -0.625000 0.375000 1.250000
v -0.625000 0.000000 1.187500
v -0.625000 0.375000 1.187500
v 0.625000 0.000000 1.250000
v 0.625000 0.375000 1.250000
v 0.625000 0.000000 1.187500
v 0.625000 0.375000 1.187500
v -0.625000 0.062500 -0.375000
v -0.625000 0.375000 -0.375000
v -0.375000 0.062500 -0.375000
v -0.625000 0.062500 0.250000
v -0.625000 0.375000 0.250000
v -0.375000 0.375000 0.250000
v -0.375000 0.062500 0.250000
v 0.625000 0.062500 0.250000
v 0.625000 0.375000 0.250000
v 0.375000 0.062500 0.250000
v 0.625000 0.062500 -0.375000
v 0.625000 0.375000 -0.375000
v 0.375000 0.062500 -0.375000
v 0.125000 1.312500 1.312500
v -0.125000 1.312500 1.312500
v 0.125000 1.312500 1.437500
v -0.125000 1.312500 1.437500
v 0.125000 1.062500 1.312500
v -0.125000 1.062500 1.312500
v 0.125000 1.062500 1.437500
v -0.125000 1.062500 1.437500
vt 0.4297 0.6562
vt 0.4297 0.6094
vt 0.4375 0.6172
vt 0.4375 0.6484
vt 0.3984 0.6094
vt 0.3984 0.6406
vt 0.3906 0.6406
vt 0.3906 0.6094
vt 0.3984 0.6094
vt 0.3984 0.6406
vt 0.3906 0.6406
vt 0.3906 0.6094
vt 0.3906 0.6406
vt 0.3906 0.6094
vt 0.3984 0.6094
vt 0.3984 0.6406
vt 0.4766 0.6094
vt 0.4766 0.6562
vt 0.4688 0.6484
vt 0.4688 0.6172
vt 0.3906 0.6406
vt 0.3906 0.6094
vt 0.3984 0.6094
vt 0.3984 0.6406
vt 0.4297 0.6406
vt 0.4297 0.6094
vt 0.4375 0.6562
vt 0.4297 0.6562
vt 0.4297 0.6094
vt 0.4375 0.6094
vt 0.4766 0.6562
vt 0.4688 0.6562
vt 0.4688 0.6094
vt 0.4766 0.6094
vt 0.4766 0.6172
vt 0.4297 0.6172
vt 0.4766 0.6094
vt 0.4766 0.6562
vt 0.4688 0.6484
vt 0.4688 0.6172
vt 0.4297 0.6094
vt 0.4375 0.6172
vt 0.4766 0.6562
vt 0.4688 0.6562
vt 0.4688 0.6094
vt 0.4766 0.6094
vt 0.4375 0.6562
vt 0.4297 0.6562
vt 0.4297 0.6094
vt 0.4375 0.6094
vt 0.4297 0.6562
vt 0.4375 0.6484
vt 0.4766 0.6172
vt 0.4297 0.6172
vt 0.4297 0.6406
vt 0.3984 0.6406
vt 0.3984 0.6094
vt 0.4297 0.6094
vt 0.3984 0.6094
vt 0.3984 0.6406
vt 0.3906 0.6406
vt 0.3906 0.6094
vt 0.3984 0.6094
vt 0.3984 0.6406
vt 0.3906 0.6406
vt 0.3906 0.6094
vt 0.3906 0.6406
vt 0.3906 0.6094
vt 0.3906 0.6406
vt 0.3906 0.6094
vt 0.3984 0.6094
vt 0.3984 0.6406
vt 0.4297 0.6562
vt 0.4375 0.6484
vt 0.4375 0.6172
vt 0.4297 0.6094
vt 0.3984 0.6094
vt 0.3906 0.6094
vt 0.3906 0.6406
vt 0.3984 0.6406
vt 0.3984 0.6094
vt 0.3906 0.6094
vt 0.3906 0.6406
vt 0.3984 0.6406
vt 0.3906 0.6406
vt 0.3984 0.6406
vt 0.3984 0.6094
vt 0.3906 0.6094
vt 0.4766 0.6094
vt 0.4688 0.6172
vt 0.4688 0.6484
vt 0.4766 0.6562
vt 0.3906 0.6406
vt 0.3984 0.6406
vt 0.3984 0.6094
vt 0.3906 0.6094
vt 0.4297 0.6406
vt 0.4297 0.6094
vt 0.4375 0.6562
vt 0.4375 0.6094
vt 0.4297 0.6094
vt 0.4297 0.6562
vt 0.4766 0.6562
vt 0.4766 0.6094
vt 0.4688 0.6094
vt 0.4688 0.6562
vt 0.4297 0.6172
vt 0.4766 0.6172
vt 0.4766 0.6094
vt 0.4688 0.6172
vt 0.4688 0.6484
vt 0.4766 0.6562
vt 0.4297 0.6094
vt 0.4375 0.6172
vt 0.4766 0.6562
vt 0.4766 0.6094
vt 0.4688 0.6094
vt 0.4688 0.6562
vt 0.4375 0.6562
vt 0.4375 0.6094
vt 0.4297 0.6094
vt 0.4297 0.6562
vt 0.4375 0.6484
vt 0.4297 0.6562
vt 0.4297 0.6172
vt 0.4766 0.6172
vt 0.4297 0.6406
vt 0.4297 0.6094
vt 0.3984 0.6094
vt 0.3984 0.6406
vt 0.3984 0.6094
vt 0.3906 0.6094
vt 0.3906 0.6406
vt 0.3984 0.6406
vt 0.3984 0.6094
vt 0.3906 0.6094
vt 0.3906 0.6406
vt 0.3984 0.6406
vt 0.3906 0.6406
vt 0.3906 0.6094
vt 0.3906 0.6406
vt 0.3984 0.6406
vt 0.3984 0.6094
vt 0.3906 0.6094
vt 0.5469 0.2422
vt 0.5469 0.2656
vt 0.7812 0.2656
vt 0.7812 0.2422
vt 0.7812 0.2422
vt 0.7812 0.2656
vt 0.5469 0.2656
vt 0.5469 0.2422
vt 0.4688 0.2656
vt 0.4688 0.2422
vt 0.7812 0.3125
vt 0.5469 0.3125
vt 0.5469 0.3125
vt 0.7812 0.3125
vt 0.4688 0.3125
vt 0.4844 0.1172
vt 0.5156 0.1172
vt 0.5156 0.1797
vt 0.4844 0.1797
vt 0.4844 0.2109
vt 0.4844 0.1797
vt 0.5156 0.1797
vt 0.5156 0.2109
vt 0.4844 0.1172
vt 0.5156 0.1172
vt 0.5156 0.1797
vt 0.4844 0.1797
vt 0.4844 0.1172
vt 0.5156 0.1172
vt 0.5156 0.1797
vt 0.4844 0.1797
vt 0.4844 0.1172
vt 0.5156 0.1172
vt 0.3750 0.6875
vt 0.3750 0.6406
vt 0.4062 0.6406
vt 0.4062 0.6875
vt 0.3281 0.6406
vt 0.3750 0.6406
vt 0.3750 0.6875
vt 0.3281 0.6875
vt 0.3750 0.6875
vt 0.3750 0.6406
vt 0.4062 0.6406
vt 0.4062 0.6875
vt 0.3750 0.6875
vt 0.3750 0.6406
vt 0.4062 0.6406
vt 0.4062 0.6875
vt 0.3750 0.6875
vt 0.3750 0.6406
vt 0.4062 0.6406
vt 0.4062 0.6875
vt 0.5703 0.1875
vt 0.5391 0.1875
vt 0.5391 0.1328
vt 0.5703 0.1328
vt 0.5703 0.1875
vt 0.5391 0.1875
vt 0.5391 0.1328
vt 0.5703 0.1328
vt 0.5703 0.1875
vt 0.5391 0.1875
vt 0.5391 0.1328
vt 0.5703 0.1328
vt 0.5703 0.1875
vt 0.5391 0.1875
vt 0.5391 0.1328
vt 0.5703 0.1328
vt 0.5703 0.1875
vt 0.5391 0.1875
vt 0.5391 0.1328
vt 0.5703 0.1328
vt 0.5703 0.1875
vt 0.5391 0.1875
vt 0.5391 0.1328
vt 0.5703 0.1328
vt 0.5703 0.1875
vt 0.5391 0.1875
vt 0.5391 0.1328
vt 0.5703 0.1328
vt 0.5703 0.1875
vt 0.5391 0.1875
vt 0.5391 0.1328
vt 0.5703 0.1328
vt 0.5078 0.0781
vt 0.5234 0.0469
vt 0.5547 0.0312
vt 0.5859 0.0469
vt 0.6016 0.0781
vt 0.5859 0.1094
vt 0.5547 0.1250
vt 0.5234 0.1094
vt 0.7812 0.4375
vt 0.7812 0.5000
vt 0.5859 0.5000
vt 0.5859 0.4375
vt 0.5859 0.4375
vt 0.5859 0.5000
vt 0.7812 0.5000
vt 0.7812 0.4375
vt 0.9062 0.4375
vt 0.9062 0.5000
vt 0.5859 0.3125
vt 0.7812 0.3125
vt 0.5859 0.5312
vt 0.5859 0.5938
vt 0.7812 0.5938
vt 0.7812 0.5312
vt 0.7812 0.5312
vt 0.5859 0.5312
vt 0.8750 0.5312
vt 0.8125 0.5312
vt 0.0703 0.3828
vt 0.3203 0.3828
vt 0.3203 0.4141
vt 0.0703 0.4141
vt 0.3203 0.4141
vt 0.0703 0.4141
vt 0.0703 0.3828
vt 0.3203 0.3828
vt 0.0703 0.2266
vt 0.0391 0.3828
vt 0.0391 0.2266
vt 0.0703 0.2266
vt 0.0859 0.2578
vt 0.0859 0.3516
vt 0.3984 0.3828
vt 0.3984 0.4141
vt 0.3984 0.3828
vt 0.3984 0.4141
vt 0.3672 0.4375
vt 0.2891 0.4375
vt 0.2891 0.5938
vt 0.3672 0.5938
vt 0.0391 0.3828
vt 0.0391 0.2266
vt 0.0703 0.2422
vt 0.0703 0.3672
vt 0.0703 0.3828
vt 0.0703 0.2266
vt 0.2734 0.4375
vt 0.2891 0.4375
vt 0.2891 0.5938
vt 0.2734 0.5938
vt 0.3203 0.2266
vt 0.3984 0.2266
vt 0.3828 0.2578
vt 0.3203 0.2578
vt 0.1328 0.4375
vt 0.1484 0.4375
vt 0.1484 0.5938
vt 0.1328 0.5938
vt 0.3672 0.4375
vt 0.3672 0.5938
vt 0.1484 0.6094
vt 0.5234 0.5938
vt 0.5078 0.6094
vt 0.3828 0.6094
vt 0.1484 0.6094
vt 0.2734 0.6094
vt 0.2734 0.6875
vt 0.1484 0.6875
vt 0.3672 0.6094
vt 0.2891 0.6094
vt 0.3672 0.6094
vt 0.2891 0.6094
vt 0.2734 0.6094
vt 0.1484 0.4375
vt 0.2734 0.4375
vt 0.2734 0.5312
vt 0.1484 0.5312
vt 0.3984 0.4375
vt 0.2734 0.4141
vt 0.3984 0.4141
vt 0.5625 0.5312
vt 0.5859 0.5938
vt 0.5859 0.4375
vt 0.5625 0.4375
vt 0.5625 0.5312
vt 0.5625 0.4375
vt 0.5859 0.4375
vt 0.5859 0.5938
vt 0.4453 0.6562
vt 0.4453 0.6641
vt 0.4219 0.6641
vt 0.4219 0.6562
vt 0.4453 0.6562
vt 0.4453 0.6641
vt 0.4219 0.6641
vt 0.4219 0.6562
vt 0.4219 0.6641
vt 0.4219 0.6562
vt 0.4453 0.6562
vt 0.4453 0.6641
vt 0.4453 0.6562
vt 0.4453 0.6641
vt 0.4219 0.6641
vt 0.4219 0.6562
vt 0.2812 0.6875
vt 0.2734 0.6875
vt 0.2734 0.6406
vt 0.2812 0.6406
vt 0.2812 0.6875
vt 0.2734 0.6875
vt 0.2734 0.6406
vt 0.2812 0.6406
vt 0.2812 0.6875
vt 0.2734 0.6875
vt 0.2734 0.6406
vt 0.2812 0.6406
vt 0.2734 0.6406
vt 0.2812 0.6406
vt 0.2812 0.6875
vt 0.2734 0.6875
vt 0.3281 0.6406
vt 0.3281 0.6875
vt 0.3672 0.6406
vt 0.3672 0.6172
vt 0.3906 0.6172
vt 0.3906 0.6406
vt 0.1328 0.4766
vt 0.0391 0.4766
vt 0.0391 0.4375
vt 0.1328 0.4375
vt 0.0391 0.5391
vt 0.0391 0.4766
vt 0.0000 0.4766
vt -0.0000 0.5391
vt 0.3203 0.3516
vt 0.3828 0.3516
vt 0.0391 0.7734
vt 0.0391 0.5391
vt 0.1328 0.5391
vt 0.1328 0.7734
vt 0.0391 0.4766
vt 0.1328 0.4766
vt 0.0391 0.5391
vt 0.0391 0.7734
vt -0.0000 0.7734
vt -0.0000 0.5391
vt 0.0391 0.7734
vt 0.0000 0.7734
vt -0.0000 0.4766
vt 0.1328 0.7734
vt 0.1328 0.8125
vt 0.0391 0.8125
vt 0.4453 0.6562
vt 0.4453 0.6641
vt 0.4219 0.6641
vt 0.4219 0.6562
vt 0.4453 0.6562
vt 0.4453 0.6641
vt 0.4219 0.6641
vt 0.4219 0.6562
vt 0.4219 0.6641
vt 0.4219 0.6562
vt 0.4453 0.6562
vt 0.4453 0.6641
vt 0.4453 0.6562
vt 0.4453 0.6641
vt 0.4219 0.6641
vt 0.4219 0.6562
vt 0.4219 0.6875
vt 0.4453 0.6875
vt 0.5234 0.3750
vt 0.3984 0.3750
vt 0.3984 0.3359
vt 0.5234 0.3359
vt 0.1484 0.5312
vt 0.2734 0.5312
vt 0.2734 0.5938
vt 0.1484 0.5938
vt 0.5234 0.5312
vt 0.5234 0.5938
vt 0.5234 0.5938
vt 0.5234 0.5312
vt 0.5234 0.3750
vt 0.5234 0.4375
vt 0.3984 0.4375
vt 0.3984 0.3750
vt 0.5234 0.6172
vt 0.5234 0.6406
vt 0.4766 0.6406
vt 0.4766 0.6172
vt 0.8428 0.0572
vt 0.8428 0.0010
vt 0.8990 0.0010
vt 0.8990 0.0572
vt 0.5234 0.6172
vt 0.5234 0.6406
vt 0.4766 0.6406
vt 0.4766 0.6172
vt 0.5234 0.6875
vt 0.4766 0.6875
vt 0.5234 0.6172
vt 0.5234 0.6406
vt 0.4766 0.6406
vt 0.4766 0.6172
vt 0.4766 0.6406
vt 0.4766 0.6172
vt 0.5234 0.6172
vt 0.5234 0.6406
vt 0.4766 0.6406
vt 0.4766 0.6172
vt 0.5234 0.6172
vt 0.5234 0.6406
vt 0.4766 0.6406
vt 0.4766 0.6172
vt 0.5234 0.6172
vt 0.5234 0.6406
vt 0.4766 0.6406
vt 0.5234 0.6406
vt 0.5234 0.6875
vt 0.4766 0.6875
vt 0.5234 0.6172
vt 0.5234 0.6406
vt 0.4766 0.6406
vt 0.4766 0.6172
vt 0.4766 0.6172
vt 0.5234 0.6172
vt 0.1406 0.7422
vt 0.1328 0.7422
vt 0.1328 0.6953
vt 0.1406 0.6953
vt 0.2969 0.7422
vt 0.1484 0.7422
vt 0.1484 0.6953
vt 0.2969 0.6953
vt 0.1406 0.7422
vt 0.1328 0.7422
vt 0.1328 0.6953
vt 0.1406 0.6953
vt 0.2969 0.7422
vt 0.2969 0.6953
vt 0.1406 0.6875
vt 0.2969 0.6875
vt 0.2422 0.8125
vt 0.2422 0.7734
vt 0.2109 0.7734
vt 0.2109 0.8125
vt 0.2422 0.8125
vt 0.2109 0.8125
vt 0.2109 0.7734
vt 0.2422 0.7734
vt 0.2422 0.8125
vt 0.2109 0.8125
vt 0.2109 0.7734
vt 0.2422 0.7734
vt 0.2422 0.8125
vt 0.2422 0.7734
vt 0.2109 0.7734
vt 0.2109 0.8125
vt 0.2109 0.7734
vt 0.2109 0.8125
vt 0.1328 0.8125
vt 0.1328 0.7734
vt 0.2109 0.7422
vt 0.2109 0.7734
vt 0.1328 0.7734
vt 0.1328 0.7422
vt 0.2109 0.7734
vt 0.2109 0.8125
vt 0.1328 0.8125
vt 0.1328 0.7734
vt 0.2109 0.7422
vt 0.2109 0.7734
vt 0.1328 0.7734
vt 0.1328 0.7422
vt 0.0312 0.8438
vt 0.0469 0.8828
vt 0.0469 0.9609
vt 0.0312 1.0000
vt 0.2812 0.8438
vt 0.2812 0.8828
vt 0.2812 0.9609
vt 0.2812 1.0000
vt 0.3672 0.4453
vt 0.5234 0.4453
vt 0.6016 0.1797
vt 0.5703 0.1797
vt 0.5703 0.1484
vt 0.6016 0.1484
vt 0.6016 0.1484
vt 0.5703 0.1484
vt 0.5703 0.1328
vt 0.6016 0.1328
vt 0.6016 0.1328
vt 0.6016 0.1484
vt 0.5703 0.1484
vt 0.5703 0.1328
vt 0.6016 0.1328
vt 0.6016 0.1484
vt 0.5703 0.1484
vt 0.5703 0.1328
vt 0.6016 0.1484
vt 0.5703 0.1484
vt 0.5703 0.1328
vt 0.6016 0.1328
vn 1.0000 0.0000 0.0000
vn 0.0000 0.0000 -1.0000
vn 0.0000 1.0000 0.0000
vn 0.0000 -1.0000 0.0000
vn 0.0000 0.0000 1.0000
vn -1.0000 0.0000 0.0000
vn -0.3827 0.9239 0.0000
vn -0.9239 -0.3827 0.0000
vn 0.9239 -0.3827 0.0000
vn 0.3827 0.9239 0.0000
vn -0.9239 0.3827 0.0000
vn -0.3827 -0.9239 0.0000
vn 0.3827 -0.9239 0.0000
vn 0.9239 0.3827 0.0000
vn 0.7071 0.7071 0.0000
vn -0.7071 0.7071 0.0000
usemtl Material
s off
f 12/1/1 15/2/1 9/3/1 6/4/1
f 5/5/2 4/6/2 10/7/2 8/8/2
f 4/9/3 6/10/3 7/11/3 10/12/3
f 9/13/4 5/14/4 8/15/4 32/16/4
f 13/17/1 3/18/1 4/19/1 5/20/1
f 6/21/5 9/22/5 32/23/5 7/24/5
f 15/2/1 13/17/1 5/20/1 9/3/1
f 10/25/1 7/24/1 32/23/1 8/26/1
f 12/27/5 1/28/5 11/29/5 15/30/5
f 14/31/2 3/32/2 13/33/2 2/34/2
f 3/18/1 12/1/1 6/4/1 4/19/1
f 11/29/4 2/34/4 13/35/4 15/36/4
f 21/37/1 20/38/1 19/39/1 18/40/1
f 23/41/1 21/37/1 18/40/1 16/42/1
f 24/43/2 20/44/2 21/45/2 25/46/2
f 22/47/5 26/48/5 27/49/5 23/50/5
f 20/38/1 22/51/1 17/52/1 19/39/1
f 27/49/4 25/46/4 21/53/4 23/54/4
f 22/51/1 23/41/1 16/42/1 17/52/1
f 28/55/1 30/56/1 31/57/1 29/58/1
f 18/59/2 19/60/2 28/61/2 29/62/2
f 19/63/3 17/64/3 30/65/3 28/66/3
f 17/67/5 16/68/5 31/57/5 30/56/5
f 16/69/4 18/70/4 29/71/4 31/72/4
f 11/29/6 1/28/6 14/31/6 2/34/6
f 24/43/6 25/46/6 27/49/6 26/48/6
f 44/73/6 38/74/6 41/75/6 47/76/6
f 37/77/2 40/78/2 42/79/2 36/80/2
f 36/81/3 42/82/3 39/83/3 38/84/3
f 41/85/4 64/86/4 40/87/4 37/88/4
f 45/89/6 37/90/6 36/91/6 35/92/6
f 38/93/5 39/94/5 64/95/5 41/96/5
f 47/76/6 41/75/6 37/90/6 45/89/6
f 42/97/6 40/98/6 64/95/6 39/94/6
f 44/99/5 47/100/5 43/101/5 33/102/5
f 46/103/2 34/104/2 45/105/2 35/106/2
f 35/92/6 36/91/6 38/74/6 44/73/6
f 43/101/4 47/107/4 45/108/4 34/104/4
f 53/109/6 50/110/6 51/111/6 52/112/6
f 55/113/6 48/114/6 50/110/6 53/109/6
f 56/115/2 57/116/2 53/117/2 52/118/2
f 54/119/5 55/120/5 59/121/5 58/122/5
f 52/112/6 51/111/6 49/123/6 54/124/6
f 59/121/4 55/125/4 53/126/4 57/116/4
f 54/124/6 49/123/6 48/114/6 55/113/6
f 60/127/6 61/128/6 63/129/6 62/130/6
f 50/131/2 61/132/2 60/133/2 51/134/2
f 51/135/3 60/136/3 62/137/3 49/138/3
f 49/139/5 62/130/5 63/129/5 48/140/5
f 48/141/4 63/142/4 61/143/4 50/144/4
f 43/101/1 34/104/1 46/103/1 33/102/1
f 56/115/1 58/122/1 59/121/1 57/116/1
f 65/145/6 66/146/6 68/147/6 67/148/6
f 71/149/1 72/150/1 70/151/1 69/152/1
f 69/152/5 70/151/5 66/153/5 65/154/5
f 70/151/1 72/150/1 75/155/1 76/156/1
f 68/147/6 66/146/6 73/157/6 74/158/6
f 66/153/5 70/151/5 76/156/5 73/159/5
f 79/160/2 80/161/2 84/162/2 83/163/2
f 82/164/3 81/165/3 83/166/3 84/167/3
f 78/168/5 77/169/5 81/170/5 82/171/5
f 80/172/6 78/173/6 82/174/6 84/175/6
f 77/176/1 79/177/1 83/166/1 81/165/1
f 87/178/2 88/179/2 92/180/2 91/181/2
f 90/182/3 89/183/3 91/184/3 92/185/3
f 86/186/5 85/187/5 89/188/5 90/189/5
f 88/190/6 86/191/6 90/192/6 92/193/6
f 85/194/1 87/195/1 91/196/1 89/197/1
f 97/198/7 96/199/7 104/200/7 105/201/7
f 95/202/8 94/203/8 102/204/8 103/205/8
f 100/206/9 99/207/9 107/208/9 108/209/9
f 98/210/10 97/211/10 105/212/10 106/213/10
f 96/214/11 95/215/11 103/216/11 104/217/11
f 94/218/12 93/219/12 101/220/12 102/221/12
f 93/222/13 100/223/13 108/224/13 101/225/13
f 99/226/14 98/227/14 106/228/14 107/229/14
f 102/230/5 101/231/5 108/232/5 107/233/5 106/234/5 105/235/5 104/236/5 103/237/5
f 109/238/6 110/239/6 112/240/6 111/241/6
f 115/242/1 116/243/1 114/244/1 113/245/1
f 113/246/5 114/247/5 110/239/5 109/238/5
f 111/248/4 115/242/4 113/245/4 109/249/4
f 120/250/3 118/251/3 117/252/3 119/253/3
f 114/244/15 116/243/15 120/250/15 119/253/15
f 112/240/16 110/239/16 117/254/16 118/255/16
f 110/239/5 114/247/5 119/256/5 117/257/5
f 121/258/6 123/259/6 122/260/6 210/261/6
f 126/262/1 124/263/1 214/264/1 125/265/1
f 124/266/5 121/258/5 210/267/5 214/268/5
f 214/264/4 210/269/4 165/270/4 208/271/4
f 122/260/6 123/259/6 127/272/6 128/273/6
f 126/262/1 125/265/1 130/274/1 129/275/1
f 126/276/1 129/277/1 138/278/1 134/279/1
f 130/280/2 128/281/2 131/282/2 132/283/2
f 129/284/2 130/280/2 132/283/2
f 127/285/2 131/282/2 128/281/2
f 131/286/2 127/287/2 137/288/2 135/289/2
f 122/290/4 128/291/4 167/292/4 174/293/4
f 129/294/2 132/295/2 136/296/2 138/297/2
f 127/287/6 123/298/6 133/299/6 137/288/6
f 138/297/2 136/296/2 142/300/2
f 134/301/5 140/302/5 139/303/5 133/299/5
f 139/304/3 140/305/3 142/306/3 141/307/3
f 140/308/15 134/279/15 138/278/15 142/309/15
f 133/299/16 139/310/16 141/311/16 137/288/16
f 135/289/2 137/288/2 141/312/2
f 136/296/2 135/289/2 141/312/2 142/300/2
f 147/313/2 146/314/2 145/315/2 148/316/2
f 132/317/3 131/286/3 146/318/3 147/319/3
f 148/320/6 136/321/6 132/322/6 147/323/6
f 145/324/1 146/325/1 131/326/1 135/327/1
f 150/328/6 152/329/6 151/330/6 149/331/6
f 156/332/1 154/333/1 153/334/1 155/335/1
f 149/336/4 151/337/4 155/338/4 153/339/4
f 154/340/3 156/341/3 152/342/3 150/343/3
f 158/344/6 160/345/6 159/346/6 157/347/6
f 164/348/1 162/349/1 161/350/1 163/351/1
f 157/352/4 159/353/4 163/354/4 161/355/4
f 162/356/3 164/357/3 160/358/3 158/359/3
f 159/360/2 160/361/2 164/348/2 163/351/2
f 151/362/2 152/363/2 156/364/2 155/365/2
f 167/366/2 166/367/2 172/368/2 173/369/2
f 174/370/6 167/371/6 173/372/6 168/373/6
f 125/265/4 214/264/4 208/271/4 205/374/4
f 130/274/4 125/265/4 205/374/4 166/375/4
f 210/269/4 122/290/4 174/293/4 165/270/4
f 128/291/4 130/274/4 166/375/4 167/292/4
f 169/376/4 168/377/4 170/378/4 171/379/4
f 170/378/4 168/377/4 173/380/4 172/381/4
f 205/382/1 208/383/1 171/384/1 170/385/1
f 165/386/6 174/370/6 168/373/6 169/387/6
f 166/367/1 205/382/1 170/385/1 172/388/1
f 208/383/5 165/389/5 169/390/5 171/391/5
f 178/392/6 180/393/6 179/394/6 177/395/6
f 184/396/1 182/397/1 181/398/1 183/399/1
f 177/400/4 179/401/4 183/402/4 181/403/4
f 182/404/3 184/405/3 180/406/3 178/407/3
f 179/408/2 180/406/2 184/405/2 183/409/2
f 148/410/3 145/411/3 185/412/3 186/413/3
f 186/414/2 185/415/2 187/416/2 188/417/2
f 148/320/6 186/418/6 188/419/6 136/321/6
f 135/327/1 187/420/1 185/421/1 145/324/1
f 136/422/4 188/423/4 187/424/4 135/425/4
f 190/426/6 192/427/6 191/428/6 189/429/6
f 192/430/2 196/431/2 195/432/2 191/433/2
f 196/434/1 194/435/1 193/436/1 195/437/1
f 194/435/5 190/438/5 189/439/5 193/436/5
f 189/440/4 191/441/4 195/442/4 193/443/4
f 194/444/3 196/445/3 192/446/3 190/447/3
f 198/448/6 200/449/6 199/450/6 197/451/6
f 204/452/1 202/453/1 201/454/1 203/455/1
f 202/456/2 198/457/2 197/458/2 201/459/2
f 197/460/3 199/461/3 203/462/3 201/463/3
f 202/456/4 204/464/4 200/465/4 198/457/4
f 210/466/6 212/467/6 211/468/6 209/469/6
f 212/470/2 216/471/2 215/472/2 211/473/2
f 216/474/1 214/475/1 213/476/1 215/477/1
f 214/478/5 210/466/5 209/469/5 213/479/5
f 209/469/4 211/480/4 215/481/4 213/479/4
f 175/482/2 219/483/2 217/484/2 218/485/2
f 222/486/5 221/487/5 220/488/5 223/489/5
f 206/490/2 228/491/2 227/492/2 229/493/2
f 207/494/5 226/495/5 224/496/5 225/497/5
f 218/498/6 217/499/6 220/500/6 221/501/6
f 217/502/4 219/503/4 223/504/4 220/505/4
f 225/506/1 224/507/1 227/508/1 228/509/1
f 224/510/4 226/511/4 229/512/4 227/513/4
f 124/514/3 69/515/3 65/516/3 121/517/3
f 126/518/3 71/519/3 69/515/3 124/514/3
f 67/520/3 123/521/3 121/517/3 65/516/3
f 134/301/5 133/299/5 123/522/5 126/523/5
f 232/524/5 233/525/5 237/526/5 236/527/5
f 235/528/4 234/529/4 236/530/4 237/531/4
f 230/532/1 232/533/1 236/534/1 234/535/1
f 233/536/6 231/537/6 235/538/6 237/539/6
f 230/540/3 231/541/3 233/542/3 232/543/3
l 174 175
l 176 165
